<svg id="Capa_1" enable-background="new 0 0 512 512" height="512" viewBox="0 0 512 512" width="512" xmlns="http://www.w3.org/2000/svg"><path d="m303.839 497v-85.047l-67.855-20.016 20.016 105.063z" fill="#b4d2d7"/><g fill="#e1ebf0"><path d="m208.161 497h47.839v-105.063l-47.839 20.016z"/><path d="m512 337.587-276.016-20.016 20.016 94.382h256z"/><path d="m415.463 512v-30h-159.463l-10.008 15 10.008 15z"/></g><path d="m96.537 482h159.463v30h-159.463z" fill="#fff5f5"/><path d="m0 337.587v74.366h256v-94.382z" fill="#fff5f5"/><path d="m512 82.445h-256l-20.016 127.571 20.016 127.571h256z" fill="#03232e"/><path d="m0 82.445h256v255.142h-256z" fill="#07485e"/><path d="m426.094 0h-170.094l-20.016 145.373 20.016 143.429h170.094z" fill="#00aa95"/><path d="m85.906 0h170.094v288.802h-170.094z" fill="#00dd80"/><path d="m134.691 224.133h30v-56.759h44.417v56.759h30v-158.518h-104.417zm74.417-128.518v41.759h-44.417v-41.759z" fill="#fff5f5"/><path d="m332.018 65.615h-59.125v157.571h59.125c24.974 0 45.292-20.318 45.292-45.292v-66.987c-.001-24.973-20.319-45.292-45.292-45.292zm15.291 112.28c0 8.432-6.86 15.292-15.292 15.292h-29.125v-97.572h29.125c8.432 0 15.292 6.86 15.292 15.292z" fill="#e1ebf0"/></svg>