<svg id="color" enable-background="new 0 0 24 24" height="512" viewBox="0 0 24 24" width="512" xmlns="http://www.w3.org/2000/svg"><path d="m4.75 14.25h-3c-.414 0-.75-.336-.75-.75s.336-.75.75-.75h3c.414 0 .75.336.75.75s-.336.75-.75.75z" fill="#607d8b"/><path d="m22.25 14.25h-3c-.414 0-.75-.336-.75-.75s.336-.75.75-.75h3c.414 0 .75.336.75.75s-.336.75-.75.75z" fill="#607d8b"/><path d="m5.5 13.5h-4.5c0 .414.336.75.75.75h3c.414 0 .75-.336.75-.75z" fill="#546d79"/><path d="m23 13.5h-4.5c0 .414.336.75.75.75h3c.414 0 .75-.336.75-.75z" fill="#546d79"/><path d="m22.25 24c-.414 0-.75-.336-.75-.75v-17.75c0-.414.336-.75.75-.75s.75.336.75.75v17.75c0 .414-.336.75-.75.75z" fill="#607d8b"/><path d="m23.25 24h-2c-.414 0-.75-.336-.75-.75s.336-.75.75-.75h2c.414 0 .75.336.75.75s-.336.75-.75.75z" fill="#607d8b"/><path d="m22.25 4.75c-.414 0-.75.336-.75.75v17h.75z" fill="#546d79"/><path d="m22.25 22.5h-.75-.25c-.414 0-.75.336-.75.75s.336.75.75.75h1z" fill="#546d79"/><path d="m1.75 24c-.414 0-.75-.336-.75-.75v-17.75c0-.414.336-.75.75-.75s.75.336.75.75v17.75c0 .414-.336.75-.75.75z" fill="#607d8b"/><path d="m2.75 24h-2c-.414 0-.75-.336-.75-.75s.336-.75.75-.75h2c.414 0 .75.336.75.75s-.336.75-.75.75z" fill="#607d8b"/><path d="m1.75 4.75c-.414 0-.75.336-.75.75v17h.75z" fill="#546d79"/><path d="m1.75 22.5h-.75-.25c-.414 0-.75.336-.75.75s.336.75.75.75h1z" fill="#546d79"/><path d="m19.25 20h-14.5c-.414 0-.75-.336-.75-.75v-10.5c0-.414.336-.75.75-.75h14.5c.414 0 .75.336.75.75v10.5c0 .414-.336.75-.75.75z" fill="#eceff1"/><path d="m23.25 6h-22.5c-.414 0-.75-.336-.75-.75v-1.5c0-.965.785-1.75 1.75-1.75h20.5c.965 0 1.75.785 1.75 1.75v1.5c0 .414-.336.75-.75.75z" fill="#2196f3"/><path d="m12 8h-7.25c-.414 0-.75.336-.75.75v10.5c0 .414.336.75.75.75h7.25z" fill="#cdd0d2"/><path d="m12 2h-10.25c-.965 0-1.75.785-1.75 1.75v1.5c0 .414.336.75.75.75h11.25z" fill="#1d83d4"/><g fill="#607d8b"><path d="m14.5 17h-.75c-.414 0-.75-.336-.75-.75v-4.5c0-.414.336-.75.75-.75h.75c1.654 0 3 1.346 3 3s-1.346 3-3 3zm0-4.5v3c.827 0 1.5-.673 1.5-1.5s-.673-1.5-1.5-1.5z"/><path d="m10.25 17c-.414 0-.75-.336-.75-.75v-3.25c0-.276-.225-.5-.5-.5s-.5.224-.5.5v3.25c0 .414-.336.75-.75.75s-.75-.336-.75-.75v-3.25c0-1.103.896-2 2-2s2 .897 2 2v3.25c0 .414-.336.75-.75.75z"/><path d="m10.25 15.5h-2.5c-.414 0-.75-.336-.75-.75s.336-.75.75-.75h2.5c.414 0 .75.336.75.75s-.336.75-.75.75z"/></g><path d="m17.5 14h-1.5c0 .827-.673 1.5-1.5 1.5v-1.5h-1.5v2.25c0 .414.336.75.75.75h.75c1.654 0 3-1.346 3-3z" fill="#546d79"/><path d="m11 14.75c0 .414-.336.75-.75.75h-.75v.75c0 .414.336.75.75.75s.75-.336.75-.75zm-2.5-.75h-1.5v2.25c0 .414.336.75.75.75s.75-.336.75-.75v-.75h-.75c-.414 0-.75-.336-.75-.75s.336-.75.75-.75zm2.5 0h-1.5.75c.414 0 .75.336.75.75z" fill="#546d79"/><path d="m10.25 14h-.75-1-.75c-.414 0-.75.336-.75.75s.336.75.75.75h.75 1 .75c.414 0 .75-.336.75-.75 0-.414-.336-.75-.75-.75z" fill="#546d79"/></svg>