<svg id="Capa_1" enable-background="new 0 0 512 512" height="512" viewBox="0 0 512 512" width="512" xmlns="http://www.w3.org/2000/svg"><path d="m191.79 217.86c-12.95 14.93-20.79 34.38-20.79 55.64v105h-110c-8.28 0-15-6.72-15-15v-75c0-49.63 40.37-90 90-90 20.45 0 39.95 6.82 55.79 19.36z" fill="#fdbf00"/><path d="m191.79 217.86c-12.95 14.93-20.79 34.38-20.79 55.64v105h-35v-180c14.21 0 27.96 3.29 40.34 9.51 5.44 2.73 10.62 6.02 15.45 9.85z" fill="#fe9022"/><path d="m466 288.5v75c0 8.28-6.72 15-15 15h-110v-105c0-21.26-7.84-40.71-20.78-55.64 15.83-12.55 35.28-19.36 55.78-19.36 49.63 0 90 40.37 90 90z" fill="#ff641a"/><path d="m466 288.5v75c0 8.28-6.72 15-15 15h-75v-180c14.49 0 28.18 3.44 40.31 9.55 29.44 14.8 49.69 45.3 49.69 80.45z" fill="#f03800"/><path d="m256 183.5c-49.626 0-90 40.374-90 90v120c0 8.284 6.716 15 15 15h150c8.284 0 15-6.716 15-15v-120c0-49.626-40.374-90-90-90z" fill="#0097f0"/><path d="m346 273.5v120c0 8.28-6.72 15-15 15h-75v-225c15.17 0 29.48 3.77 42.02 10.43 28.51 15.11 47.98 45.11 47.98 79.57z" fill="#0052c2"/><path d="m497 371c-8.284 0-15 6.716-15 15v76h-76c-8.284 0-15 6.716-15 15s6.716 15 15 15h91c8.284 0 15-6.716 15-15v-91c0-8.284-6.716-15-15-15z" fill="#00b8f0"/><path d="m106 462h-76v-76c0-8.284-6.716-15-15-15s-15 6.716-15 15v91c0 8.284 6.716 15 15 15h91c8.284 0 15-6.716 15-15s-6.716-15-15-15z" fill="#5ecef4"/><path d="m106 20h-91c-8.284 0-15 6.716-15 15v91c0 8.284 6.716 15 15 15s15-6.716 15-15v-76h76c8.284 0 15-6.716 15-15s-6.716-15-15-15z" fill="#5ecef4"/><path d="m497 20h-92c-8.284 0-15 6.716-15 15s6.716 15 15 15h77v76c0 8.284 6.716 15 15 15s15-6.716 15-15v-91c0-8.284-6.716-15-15-15z" fill="#00b8f0"/><circle cx="256" cy="158.5" fill="#fecec0" r="55"/><path d="m311 158.5c0 13.48-4.88 25.86-12.98 35.43-10.08 11.96-25.18 19.57-42.02 19.57v-110c30.33 0 55 24.67 55 55z" fill="#feb99e"/><circle cx="376" cy="178.5" fill="#fecec0" r="50"/><path d="m426 178.5c0 11.04-3.6 21.26-9.69 29.55-9.11 12.39-23.79 20.45-40.31 20.45v-100c27.57 0 50 22.43 50 50z" fill="#feb99e"/><circle cx="136" cy="178.5" fill="#fecec0" r="50"/><path d="m186 178.5c0 11.02-3.59 21.23-9.66 29.51-9.11 12.42-23.8 20.49-40.34 20.49v-100c27.57 0 50 22.43 50 50z" fill="#feb99e"/></svg>