<svg height="512" viewBox="0 0 64 64" width="512" xmlns="http://www.w3.org/2000/svg"><g id="online-money-computer-time-email"><path d="m49 54 12-7h-24z" fill="#bddbff"/><path d="m41 36v-2h-18v2a2.006 2.006 0 0 0 2 2h5v4h4v-4h5a2.006 2.006 0 0 0 2-2z" fill="#bddbff"/><path d="m8 17h14a5 5 0 0 1 5-5v-4a5 5 0 0 1 -5-5h-14a5 5 0 0 1 -5 5v4a5 5 0 0 1 5 5zm7-10a3 3 0 1 1 -3 3 3 3 0 0 1 3-3z" fill="#bddbff"/><circle cx="13" cy="51" fill="#bddbff" r="10"/><g fill="#57a4ff"><path d="m51 2a11 11 0 1 0 11 11 11.007 11.007 0 0 0 -11-11zm0 20a9 9 0 1 1 9-9 9.014 9.014 0 0 1 -9 9z"/><path d="m47 14v2h3v2h-4a1 1 0 0 1 -1-1v-4a1 1 0 0 1 1-1h2v-2h-3v-2h4a1 1 0 0 1 1 1v4a1 1 0 0 1 -1 1z"/><path d="m57 8v10h-2v-4h-3a1 1 0 0 1 -1-1v-5h2v4h2v-4z"/><path d="m13 40a11 11 0 1 0 11 11 11.013 11.013 0 0 0 -11-11zm0 20a9 9 0 1 1 9-9 9.01 9.01 0 0 1 -9 9z"/><path d="m31 4h2v2h-2z"/><path d="m4.92 24.012h2v2h-2z" transform="matrix(.259 -.966 .966 .259 -19.772 24.256)"/><path d="m4 31h2v2h-2z"/><path d="m4.92 37.988h2v2h-2z" transform="matrix(.966 -.259 .259 .966 -9.889 2.861)"/><path d="m24.012 57.08h2v2h-2z" transform="matrix(.259 -.966 .966 .259 -37.563 67.207)"/><path d="m31 58h2v2h-2z"/><path d="m57.08 37.988h2v2h-2z" transform="matrix(.259 -.966 .966 .259 5.388 84.999)"/><path d="m58 31h2v2h-2z"/><path d="m57.08 24.012h2v2h-2z" transform="matrix(.966 -.259 .259 .966 -4.494 15.884)"/><path d="m37.988 4.92h2v2h-2z" transform="matrix(.259 -.966 .966 .259 23.179 42.048)"/><path d="m39 25h-14a3.009 3.009 0 0 0 -3 3v8a3.009 3.009 0 0 0 3 3h4v2h-2v2h10v-2h-2v-2h4a3.009 3.009 0 0 0 3-3v-8a3.009 3.009 0 0 0 -3-3zm-6 16h-2v-2h2zm7-5a1 1 0 0 1 -1 1h-14a1 1 0 0 1 -1-1v-1h16zm0-3h-16v-5a1 1 0 0 1 1-1h14a1 1 0 0 1 1 1z"/><path d="m13 48a1 1 0 0 1 1 1h2a3 3 0 0 0 -2-2.816v-1.184h-2v1.184a2.993 2.993 0 0 0 1 5.816 1 1 0 1 1 -1 1h-2a3 3 0 0 0 2 2.816v1.184h2v-1.184a2.993 2.993 0 0 0 -1-5.816 1 1 0 0 1 0-2z"/><path d="m27 2h-24a1 1 0 0 0 -1 1v14a1 1 0 0 0 1 1h24a1 1 0 0 0 1-1v-14a1 1 0 0 0 -1-1zm-23 2h2.86a4.017 4.017 0 0 1 -2.86 2.86zm0 12v-2.86a4.017 4.017 0 0 1 2.86 2.86zm22 0h-2.86a4.017 4.017 0 0 1 2.86-2.86zm0-4.91a5.992 5.992 0 0 0 -4.91 4.91h-12.18a5.992 5.992 0 0 0 -4.91-4.91v-2.18a5.992 5.992 0 0 0 4.91-4.91h12.18a5.992 5.992 0 0 0 4.91 4.91zm0-4.23a4.017 4.017 0 0 1 -2.86-2.86h2.86z"/><path d="m61 46h-24a1 1 0 0 0 -1 1v14a1 1 0 0 0 1 1h24a1 1 0 0 0 1-1v-14a1 1 0 0 0 -1-1zm-3.7 2-8.3 4.84-8.3-4.84zm-19.3.74 9.01 5.26-9.01 5.26zm2.7 11.26 8.3-4.84 8.3 4.84zm19.3-.74-9.01-5.26 9.01-5.26z"/><path d="m15 14a4 4 0 1 0 -4-4 4 4 0 0 0 4 4zm0-6a2 2 0 1 1 -2 2 2 2 0 0 1 2-2z"/></g></g></svg>