<svg id="Layer_5" enable-background="new 0 0 64 64" height="512" viewBox="0 0 64 64" width="512" xmlns="http://www.w3.org/2000/svg" xmlns:xlink="http://www.w3.org/1999/xlink"><linearGradient id="SVGID_1_" gradientUnits="userSpaceOnUse" x1="32" x2="32" y1="63" y2="1"><stop offset="0" stop-color="#9f2fff"/><stop offset="1" stop-color="#0bb1d3"/></linearGradient><path d="m35 53h-6c-1.103 0-2 .897-2 2v2c0 1.103.897 2 2 2h6c1.103 0 2-.897 2-2v-2c0-1.103-.897-2-2-2zm-6 4v-2h6l.002 2zm16-4h-2c-1.103 0-2 .897-2 2v2c0 1.103.897 2 2 2h2c1.103 0 2-.897 2-2v-2c0-1.103-.897-2-2-2zm-2 4v-2h2l.002 2zm-22-4h-2c-1.103 0-2 .897-2 2v2c0 1.103.897 2 2 2h2c1.103 0 2-.897 2-2v-2c0-1.103-.897-2-2-2zm-2 4v-2h2l.002 2zm9-52c.552 0 1 .448 1 1s-.448 1-1 1-1-.448-1-1 .448-1 1-1zm3 1c0-.552.448-1 1-1s1 .448 1 1-.448 1-1 1-1-.448-1-1zm4 0c0-.552.448-1 1-1s1 .448 1 1-.448 1-1 1-1-.448-1-1zm-7 31c-1.627 0-3.061.793-3.974 2h-4.026c-1.654 0-3 1.346-3 3s1.346 3 3 3h4.026c.914 1.207 2.348 2 3.974 2s3.061-.793 3.974-2h12.026c1.654 0 3-1.346 3-3s-1.346-3-3-3h-12.026c-.913-1.207-2.347-2-3.974-2zm-8 6c-.552 0-1-.448-1-1s.448-1 1-1h3.101c-.066.323-.101.658-.101 1s.035.677.101 1zm8 2c-1.654 0-3-1.346-3-3s1.346-3 3-3 3 1.346 3 3-1.346 3-3 3zm16-4c.552 0 1 .448 1 1s-.448 1-1 1h-11.101c.066-.323.101-.658.101-1s-.035-.677-.101-1zm16-28h-9v-7c0-2.757-2.243-5-5-5h-10-8-10c-2.757 0-5 2.243-5 5v13.172c-1.616.536-3.32.828-5.071.828h-3.929c-1.654 0-3 1.346-3 3v4c0 1.654 1.346 3 3 3h.22l1.999 8h4.781v-7.704c.681.131 1.346.316 2 .533v27.171c0 2.757 2.243 5 5 5h28c2.757 0 5-2.243 5-5v-25h9c1.654 0 3-1.346 3-3v-14c0-1.654-1.346-3-3-3zm-11-7v3h-9.026c.635-.838 1.026-1.87 1.026-3s-.391-2.162-1.026-3h6.026c1.654 0 3 1.346 3 3zm-13-3c1.654 0 3 1.346 3 3s-1.346 3-3 3h-8c-1.654 0-3-1.346-3-3s1.346-3 3-3zm-18 0h6.026c-.635.838-1.026 1.87-1.026 3s.391 2.162 1.026 3h-9.026v-3c0-1.654 1.346-3 3-3zm1 28.806c-2.876-2.241-6.332-3.54-10-3.754v-6.104c3.668-.214 7.124-1.513 10-3.754zm-16-4.806v-1h2v-2h-2v-1c0-.552.448-1 1-1h3v6h-3c-.552 0-1-.448-1-1zm6 9h-1.219l-1.501-6h1.648c.36 0 .715.029 1.071.052v5.948zm37 25h-28c-1.654 0-3-1.346-3-3v-7h34v7c0 1.654-1.346 3-3 3zm3-12h-34v-17.351c1.471.723 2.836 1.671 4.049 2.836.234 1.424 1.463 2.515 2.951 2.515 1.654 0 3-1.346 3-3v-4.101c2.279-.465 4-2.484 4-4.899s-1.721-4.434-4-4.899v-4.101c0-1.654-1.346-3-3-3-1.488 0-2.717 1.091-2.951 2.514-1.213 1.165-2.578 2.113-4.049 2.836v-7.35h13 8 13v2h-11c-1.654 0-3 1.346-3 3v18.586c0 1.331 1.083 2.414 2.414 2.414.636 0 1.258-.258 1.707-.707l3.293-3.293h6.586zm-28-15v-18c0-.552.448-1 1-1s1 .448 1 1v18c0 .552-.448 1-1 1s-1-.448-1-1zm4-11.816c1.161.414 2 1.514 2 2.816s-.839 2.402-2 2.816zm36 7.816c0 .552-.448 1-1 1h-18.414l-3.879 3.879c-.239.237-.707.045-.707-.293v-18.586c0-.552.448-1 1-1h22c.552 0 1 .448 1 1zm-7.447-9.342-6.764-3.382c-.361-.18-.767-.276-1.171-.276-1.443 0-2.618 1.175-2.618 2.618v6.764c0 1.443 1.175 2.618 2.618 2.618.404 0 .81-.096 1.171-.276l6.765-3.382c.891-.447 1.446-1.345 1.446-2.342s-.555-1.895-1.447-2.342zm-.895 2.895-6.764 3.382c-.386.197-.894-.116-.894-.553v-6.764c0-.341.277-.618.618-.618.096 0 .191.022.276.065l6.763 3.382c.212.106.343.318.343.553s-.131.447-.342.553zm-13.658-6.553h2v2h-2zm0 11h2v2h-2zm18-1h2v2h-2zm0-10h2v2h-2z" fill="url(#SVGID_1_)"/></svg>