<svg id="Layer_5" enable-background="new 0 0 64 64" height="512" viewBox="0 0 64 64" width="512" xmlns="http://www.w3.org/2000/svg" xmlns:xlink="http://www.w3.org/1999/xlink"><linearGradient id="SVGID_1_" gradientUnits="userSpaceOnUse" x1="32" x2="32" y1="56" y2="8"><stop offset="0" stop-color="#9f2fff"/><stop offset="1" stop-color="#0bb1d3"/></linearGradient><path d="m30.96 38.666c.64-.709 1.04-1.638 1.04-2.666 0-2.206-1.794-4-4-4s-4 1.794-4 4c0 1.028.4 1.957 1.04 2.666-2.382 1.118-4.04 3.533-4.04 6.334v3h14v-3c0-2.801-1.658-5.216-4.04-6.334zm-4.96-2.666c0-1.103.897-2 2-2s2 .897 2 2-.897 2-2 2-2-.897-2-2zm7 10h-10v-1c0-2.757 2.243-5 5-5s5 2.243 5 5zm12 4v-20c0-1.103-.897-2-2-2h-30c-1.103 0-2 .897-2 2v20c0 1.103.897 2 2 2h30c1.103 0 2-.897 2-2zm-32 0v-20h30l.001 20zm2-18h4v2h-2v2h-2zm2 14h2v2h-4v-4h2zm20-14h4v4h-2v-2h-2zm2 12h2v4h-4v-2h2zm20-23.899v-2.101c0-2.206-1.794-4-4-4h-10c-2.206 0-4 1.794-4 4v2h-1.18l-1.196-5.981c-.466-2.329-2.528-4.019-4.903-4.019h-12.721c0-1.103-.897-2-2-2h-4c-1.103 0-2 .897-2 2v.025c-2.254.128-4.177 1.759-4.624 3.994l-1.196 5.981h-1.18c-2.757 0-5 2.243-5 5v26c0 2.757 2.243 5 5 5h6 32 14c2.757 0 5-2.243 5-5v-26c0-2.414-1.721-4.434-4-4.899zm-2-2.101v2h-2v-4c1.103 0 2 .897 2 2zm-10 2v-4h2v4zm4-4h2v4h-2zm-8 2c0-1.103.897-2 2-2v4h-2zm-28-8h4l.001 2h-4.001zm-8 36h-4v-16h4zm-4 5v-3h4v3c0 1.13.391 2.162 1.026 3h-2.026c-1.654 0-3-1.346-3-3zm9 3c-1.654 0-3-1.346-3-3v-22c0-1.654 1.346-3 3-3h32c1.654 0 3 1.346 3 3v22c0 1.654-1.346 3-3 3zm49-3c0 1.654-1.346 3-3 3h-10.026c.635-.838 1.026-1.87 1.026-3v-22c0-2.757-2.243-5-5-5h-32c-2.414 0-4.434 1.721-4.899 4h-4.101v-3c0-1.654 1.346-3 3-3h2.82l1.517-7.588c.261-1.305 1.36-2.265 2.666-2.387.013 1.091.903 1.975 1.997 1.975h4c1.103 0 2-.897 2-2h12.721c1.426 0 2.663 1.014 2.942 2.412l1.517 7.588h19.82c1.654 0 3 1.346 3 3zm-45-35c-1.654 0-3 1.346-3 3s1.346 3 3 3 3-1.346 3-3-1.346-3-3-3zm0 4c-.552 0-1-.449-1-1s.448-1 1-1 1 .449 1 1-.448 1-1 1zm17-6h-10c-1.103 0-2 .897-2 2v4c0 1.103.897 2 2 2h10c1.103 0 2-.897 2-2v-4c0-1.103-.897-2-2-2zm-5 5c-.552 0-1-.449-1-1s.448-1 1-1 1 .449 1 1-.448 1-1 1zm-5-3h2.78c-.48.532-.78 1.229-.78 2s.301 1.468.78 2h-2.78zm7.22 4c.48-.532.78-1.229.78-2s-.301-1.468-.78-2h2.78l.001 4zm24.78 4c-2.206 0-4 1.794-4 4s1.794 4 4 4 4-1.794 4-4-1.794-4-4-4zm0 6c-1.103 0-2-.897-2-2s.897-2 2-2 2 .897 2 2-.897 2-2 2zm0 4c-2.206 0-4 1.794-4 4s1.794 4 4 4 4-1.794 4-4-1.794-4-4-4zm0 6c-1.103 0-2-.897-2-2s.897-2 2-2 2 .897 2 2-.897 2-2 2zm-4 12h8v-8h-8zm2-6h4v4h-4z" fill="url(#SVGID_1_)"/></svg>