<svg height="512" viewBox="0 0 128 128" width="512" xmlns="http://www.w3.org/2000/svg"><path d="m95.8 33.852h-12.166v-3.77h2.866a5.006 5.006 0 0 0 5-5v-11.867a5.007 5.007 0 0 0 -5-5h-27.026a5.006 5.006 0 0 0 -5 5v11.867a5.006 5.006 0 0 0 5 5h2.868v3.77h-20.666a6.967 6.967 0 0 0 -4.781-1.9v-2.285a3 3 0 0 0 -3-3h-6.411a3 3 0 0 0 -3 3v2.284a7.008 7.008 0 0 0 -7 7v44.849a7.008 7.008 0 0 0 7 7h16.37v3.731a4 4 0 0 0 4 4h1.611l-9.422 19.829a3.8 3.8 0 1 0 6.855 3.259l10.971-23.084h2.178v21.155a4.095 4.095 0 1 0 8.19 0v-21.155h2.178l10.971 23.084a3.8 3.8 0 0 0 6.856-3.259l-9.423-19.825h2.94a4.005 4.005 0 0 0 4-4v-3.735h13.041a9.011 9.011 0 0 0 9-9v-38.948a9.011 9.011 0 0 0 -9-9z" fill="#e6e7e8"/><path d="m113.775 20.245-2.336-.629a8.59 8.59 0 0 1 -6.044-6.044l-.629-2.337a1 1 0 0 0 -1.932 0l-.629 2.336a8.587 8.587 0 0 1 -6.044 6.044l-2.336.629a1 1 0 0 0 0 1.932l2.337.629a8.59 8.59 0 0 1 6.044 6.044l.629 2.336a1 1 0 0 0 1.931 0l.63-2.337a8.593 8.593 0 0 1 6.045-6.044l2.336-.629a1 1 0 0 0 0-1.932z" fill="#e6e7e8"/><path d="m91.8 30.852h-54.531a5.973 5.973 0 0 1 1.626 4.1v44.848a6 6 0 0 1 -6 6h58.905a8 8 0 0 0 8-8v-38.948a8 8 0 0 0 -8-8z" fill="#fa759e"/><path d="m38.895 41.895h60.905v31.752h-60.905z" fill="#ffd7e5"/><circle cx="68.988" cy="58.328" fill="#0089ef" r="20.768" transform="matrix(.973 -.23 .23 .973 -11.556 17.411)"/><path d="m68.988 40.56a20.753 20.753 0 0 1 20.692 19.268c.036-.5.076-.994.076-1.5a20.768 20.768 0 0 0 -41.536 0c0 .506.04 1 .076 1.5a20.754 20.754 0 0 1 20.692-19.268z" fill="#fff"/><path d="m68.988 44.115a14.213 14.213 0 1 0 14.212 14.213 14.229 14.229 0 0 0 -14.212-14.213z" fill="#d4fbff"/><path d="m68.988 50.669a7.659 7.659 0 1 0 7.658 7.659 7.668 7.668 0 0 0 -7.658-7.659z" fill="#6dc9f7"/><path d="m71.38 55.379a2.392 2.392 0 1 0 2.392 2.392 2.392 2.392 0 0 0 -2.392-2.392z" fill="#fff"/><path d="m59.342 25.082h19.292v5.77h-19.292z" fill="#6dc9f7"/><rect fill="#0089ef" height="19.867" rx="4" width="35.029" x="51.474" y="5.215"/><rect fill="#d4fbff" height="13.037" rx="3" width="28.199" x="54.889" y="8.63"/><rect fill="#fa759e" height="56.853" rx="6" width="24.411" x="14.484" y="28.951"/><path d="m29.9 23.667h-6.416a2 2 0 0 0 -2 2v3.284h10.416v-3.284a2 2 0 0 0 -2-2z" fill="#0089ef"/><path d="m14.484 40.374h24.411v34.006h-24.411z" fill="#ffd7e5"/><path d="m92.848 34.1a2.273 2.273 0 1 0 2.273 2.273 2.273 2.273 0 0 0 -2.273-2.273z" fill="#d4fbff"/><g fill="#6dc9f7"><path d="m107.179 16.582 2.336.629-2.336.629a9.568 9.568 0 0 0 -6.75 6.751l-.629 2.336-.629-2.336a9.566 9.566 0 0 0 -6.75-6.751l-2.336-.629 2.336-.629a9.565 9.565 0 0 0 6.75-6.75l.629-2.332.629 2.336a9.567 9.567 0 0 0 6.75 6.746z"/><path d="m54.047 93.535v22.155a3.1 3.1 0 1 0 6.19 0v-22.155z"/><path d="m44.047 93.535-10.1 21.255a2.795 2.795 0 1 0 5.049 2.4l11.241-23.655z"/><path d="m80.338 114.79-10.1-21.255h-6.19l11.242 23.654a2.795 2.795 0 1 0 5.049-2.4z"/></g><path d="m37.854 85.8v4.731a3 3 0 0 0 3 3h33.905a3 3 0 0 0 3-3v-4.731z" fill="#0089ef"/><path d="m47.22 58.328a21.768 21.768 0 1 0 21.768-21.768 21.793 21.793 0 0 0 -21.768 21.768zm41.536 0a19.768 19.768 0 1 1 -19.768-19.768 19.79 19.79 0 0 1 19.768 19.768z" fill="#3a2c60"/><path d="m91.8 29.852h-12.166v-3.77h2.866a5.006 5.006 0 0 0 5-5v-11.867a5.006 5.006 0 0 0 -5-5h-27.026a5.006 5.006 0 0 0 -5 5v11.867a5.006 5.006 0 0 0 5 5h2.868v3.77h-20.666a6.969 6.969 0 0 0 -4.781-1.9v-2.285a3 3 0 0 0 -3-3h-6.411a3 3 0 0 0 -3 3v2.284a7.008 7.008 0 0 0 -7 7v44.849a7.008 7.008 0 0 0 7 7h16.37v3.731a4.005 4.005 0 0 0 4 4h1.611l-9.423 19.829a3.8 3.8 0 0 0 6.856 3.259l10.971-23.084h2.178v21.155a4.1 4.1 0 1 0 8.19 0v-21.155h2.178l10.971 23.084a3.8 3.8 0 0 0 6.856-3.259l-9.423-19.825h2.94a4.005 4.005 0 0 0 4-4v-3.735h13.041a9.01 9.01 0 0 0 9-9v-15.271a1 1 0 0 0 -2 0v15.271a7.008 7.008 0 0 1 -7 7h-54.015a6.977 6.977 0 0 0 2.11-5v-44.849a6.941 6.941 0 0 0 -.733-3.1h52.638a7.008 7.008 0 0 1 7 7v9.749a1 1 0 1 0 2 0v-9.748a9.01 9.01 0 0 0 -9-9zm-53.708 86.908a1.8 1.8 0 0 1 -1.621 1.025 1.8 1.8 0 0 1 -1.622-2.566l9.83-20.684h3.975zm21.145-1.07a2.095 2.095 0 1 1 -4.19 0v-21.155h4.19zm20.2-.471a1.8 1.8 0 0 1 -1.621 2.566 1.8 1.8 0 0 1 -1.622-1.025l-10.564-22.225h3.975zm-2.678-24.684a2 2 0 0 1 -2 2h-33.9a2 2 0 0 1 -2-2v-3.735h37.9zm-24.285-69.453v-11.867a3 3 0 0 1 3-3h27.026a3 3 0 0 1 3 3v11.867a3 3 0 0 1 -3 3h-27.026a3 3 0 0 1 -3-3zm-29.99 4.585a1 1 0 0 1 1-1h6.416a1 1 0 0 1 1 1v2.284h-8.416zm15.416 54.133a5.006 5.006 0 0 1 -5 5h-12.416a5.006 5.006 0 0 1 -5-5v-44.849a5.006 5.006 0 0 1 5-5h12.416a5.006 5.006 0 0 1 5 5zm22.442-49.948v-3.77h17.292v3.77z" fill="#3a2c60"/><path d="m99.8 51.833a1 1 0 0 0 -1 1v5.5a1 1 0 0 0 2 0v-5.5a1 1 0 0 0 -1-1z" fill="#3a2c60"/><path d="m109.775 16.246-2.335-.629a8.593 8.593 0 0 1 -6.04-6.045l-.629-2.336a1 1 0 0 0 -1.932 0l-.628 2.336a8.6 8.6 0 0 1 -6.045 6.045l-2.336.629a1 1 0 0 0 0 1.931l2.336.629a8.6 8.6 0 0 1 6.045 6.045l.628 2.335a1 1 0 0 0 1.932 0l.629-2.335a8.591 8.591 0 0 1 6.044-6.045l2.336-.629a1 1 0 0 0 0-1.931zm-9.975 7.054a10.613 10.613 0 0 0 -6.086-6.086 10.613 10.613 0 0 0 6.086-6.089 10.613 10.613 0 0 0 6.086 6.086 10.613 10.613 0 0 0 -6.086 6.089z" fill="#3a2c60"/></svg>