<?xml version="1.0" encoding="iso-8859-1"?>
<!-- Generator: Adobe Illustrator 19.0.0, SVG Export Plug-In . SVG Version: 6.00 Build 0)  -->
<svg version="1.1" id="Capa_1" xmlns="http://www.w3.org/2000/svg" xmlns:xlink="http://www.w3.org/1999/xlink" x="0px" y="0px"
	 viewBox="0 0 511.766 511.766" style="enable-background:new 0 0 511.766 511.766;" xml:space="preserve">
<rect x="3.998" y="42.134" style="fill:#FFFFFF;" width="503.64" height="319.85"/>
<rect x="195.913" y="178.063" style="fill:#94C1FF;" width="127.94" height="79.964"/>
<rect x="315.853" y="178.063" style="fill:#5C9EFF;" width="7.996" height="80.8"/>
<rect x="355.833" y="178.063" style="fill:#94C1FF;" width="115.7" height="79.964"/>
<path style="fill:#FFFFFF;" d="M387.385,202.057c0,4.42-3.584,7.996-7.996,7.996c-4.42,0-7.996-3.576-7.996-7.996
	s3.576-7.996,7.996-7.996C383.801,194.061,387.385,197.637,387.385,202.057z"/>
<rect x="355.833" y="178.063" style="fill:#D7E9FF;" width="7.997" height="67.5"/>
<rect x="35.983" y="178.063" style="fill:#94C1FF;" width="127.94" height="79.964"/>
<polygon style="fill:#FFFFFF;" points="153.055,258.032 95.206,258.032 123.944,210.053 "/>
<polygon style="fill:#D7E9FF;" points="103.737,243.788 95.206,258.032 70.718,258.032 91.958,226.046 "/>
<g>
	<path style="fill:#FFFFFF;" d="M67.528,202.057c0,4.42-3.58,7.996-7.996,7.996s-7.996-3.576-7.996-7.996s3.58-7.996,7.996-7.996
		S67.528,197.637,67.528,202.057z"/>
	<polygon style="fill:#FFFFFF;" points="312.982,258.032 255.133,258.032 283.87,210.053 	"/>
</g>
<rect x="155.933" y="178.063" style="fill:#5C9EFF;" width="7.996" height="80.8"/>
<polygon style="fill:#D7E9FF;" points="263.664,243.788 255.133,258.032 230.645,258.032 251.885,226.046 "/>
<path style="fill:#FFFFFF;" d="M227.454,202.057c0,4.42-3.58,7.996-7.996,7.996s-7.996-3.576-7.996-7.996s3.58-7.996,7.996-7.996
	S227.454,197.637,227.454,202.057z"/>
<rect x="35.983" y="74.123" style="fill:#94C1FF;" width="439.8" height="71.959"/>
<polygon style="fill:#5C9EFF;" points="361.826,385.747 290.906,396.78 286.455,372.964 357.594,360.72 "/>
<polygon style="fill:#2287FF;" points="357.594,360.72 349.824,362.054 353.83,385.747 290.68,395.577 290.906,396.78 
	361.826,385.747 "/>
<g>
	<polygon style="fill:#94C1FF;" points="294.451,372.964 357.821,362.054 357.594,360.72 286.455,372.964 290.906,396.78 
		298.676,395.577 	"/>
	<polygon style="fill:#94C1FF;" points="256.68,369.917 236.689,365.755 222.773,286.995 259.397,264.364 278.825,374.556 	"/>
</g>
<polygon style="fill:#D7E9FF;" points="264.676,369.917 244.685,365.755 230.77,286.995 260.186,268.823 259.397,264.364 
	222.773,286.995 236.689,365.755 256.68,369.917 278.825,374.556 278.522,372.816 "/>
<rect x="467.533" y="74.123" style="fill:#5C9EFF;" width="7.996" height="71.959"/>
<path style="fill:#D7E9FF;" d="M485.535,257.65l-13.993-79.488l-15.759,2.796c8.402,47.26-117.625,69.491-117.625,69.491
	l-70.843,12.556l-7.919,1.359l19.429,110.191l78.769-13.836c0,0,128.738-6.482,134.338,25.027l15.75-2.797L485.535,257.65z"/>
<polygon style="fill:#5C9EFF;" points="507.682,382.95 491.932,385.747 455.783,180.958 471.542,178.161 "/>
<polygon style="fill:#2287FF;" points="471.542,178.161 463.787,179.535 499.686,382.95 491.69,384.372 491.932,385.747 
	507.682,382.95 "/>
<polygon style="fill:#94C1FF;" points="378.265,477.29 338.283,484.343 306.313,394.126 345.319,387.394 "/>
<polygon style="fill:#5C9EFF;" points="345.319,387.394 337.799,388.691 370.268,477.29 337.807,483.015 338.283,484.343 
	378.265,477.29 "/>
<g>
	<polygon style="fill:#D7E9FF;" points="314.31,394.126 345.795,388.691 345.319,387.394 306.313,394.126 338.283,484.343 
		345.803,483.015 	"/>
	<path style="fill:#D7E9FF;" d="M507.768,42.138v-7.996c0-4.396-3.6-7.997-7.996-7.997H11.994c-4.396,0-7.996,3.6-7.996,7.997v7.996
		H507.768z"/>
	<rect x="35.983" y="178.063" style="fill:#D7E9FF;" width="7.996" height="80.8"/>
	<rect x="35.983" y="74.123" style="fill:#D7E9FF;" width="7.996" height="71.959"/>
	<rect x="195.913" y="178.063" style="fill:#D7E9FF;" width="7.997" height="80.8"/>
</g>
<g>
	<path style="fill:#116FFF;" d="M487.73,365.958c-1.905,0-3.592-1.365-3.936-3.303l-27.776-157.49
		c-0.383-2.179,1.07-4.248,3.241-4.63c2.155-0.453,4.248,1.069,4.63,3.24l27.777,157.49c0.39,2.18-1.062,4.248-3.241,4.631
		C488.191,365.943,487.956,365.958,487.73,365.958z"/>
	<path style="fill:#116FFF;" d="M491.885,389.589c-1.906,0-3.593-1.367-3.929-3.303c-3.6-20.414-81.767-24.162-130.198-21.74
		c-2.218,0.227-4.076-1.586-4.186-3.789c-0.109-2.209,1.586-4.084,3.795-4.193c13.518-0.693,132.471-5.66,138.461,28.332
		c0.383,2.178-1.07,4.248-3.241,4.631C492.353,389.573,492.118,389.589,491.885,389.589z"/>
	<path style="fill:#116FFF;" d="M338.112,254.307c-1.906,0-3.593-1.367-3.929-3.303c-0.382-2.179,1.07-4.248,3.241-4.631
		c33.953-5.997,120.694-29.322,114.432-64.837c-0.391-2.179,1.062-4.249,3.241-4.631c2.163-0.461,4.256,1.069,4.63,3.24
		c3.843,21.764-15.758,40.903-58.238,56.888c-30.455,11.463-62.362,17.156-62.675,17.211
		C338.579,254.29,338.346,254.307,338.112,254.307z"/>
	<path style="fill:#116FFF;" d="M455.791,184.839c-1.905,0-3.592-1.366-3.936-3.303c-0.391-2.179,1.062-4.249,3.241-4.631
		l15.742-2.772c2.163-0.438,4.248,1.07,4.631,3.241c0.391,2.179-1.062,4.248-3.24,4.631l-15.743,2.772
		C456.252,184.822,456.018,184.839,455.791,184.839z"/>
	<path style="fill:#116FFF;" d="M507.643,386.808c-1.905,0-3.592-1.365-3.936-3.303l-36.108-204.742
		c-0.391-2.179,1.062-4.248,3.24-4.631c2.163-0.438,4.248,1.07,4.631,3.241l36.108,204.741c0.391,2.18-1.062,4.248-3.24,4.631
		C508.104,386.792,507.869,386.808,507.643,386.808z"/>
	<path style="fill:#116FFF;" d="M491.885,389.589c-1.906,0-3.593-1.367-3.929-3.303c-0.382-2.172,1.07-4.248,3.241-4.631
		l15.75-2.781c2.179-0.438,4.248,1.07,4.631,3.24c0.391,2.172-1.062,4.248-3.24,4.631l-15.751,2.781
		C492.353,389.573,492.118,389.589,491.885,389.589z"/>
	<path style="fill:#116FFF;" d="M278.81,378.437c-1.905,0-3.592-1.365-3.928-3.303l-19.444-110.246
		c-0.188-1.047,0.051-2.117,0.66-2.99c0.609-0.867,1.538-1.461,2.581-1.641l78.745-13.884c2.147-0.429,4.248,1.07,4.631,3.241
		c0.383,2.179-1.07,4.248-3.241,4.63l-74.81,13.188l18.055,102.375l74.81-13.189c2.179-0.443,4.248,1.07,4.63,3.242
		c0.383,2.178-1.069,4.248-3.24,4.631l-78.746,13.883C279.279,378.421,279.044,378.437,278.81,378.437z"/>
	<path style="fill:#116FFF;" d="M278.818,378.437c-0.272,0-0.546-0.031-0.819-0.086l-42.149-8.809
		c-1.601-0.334-2.838-1.607-3.12-3.217l-13.892-78.744c-0.285-1.609,0.441-3.234,1.827-4.092l36.601-22.693
		c1.132-0.695,2.541-0.797,3.74-0.25c1.21,0.539,2.073,1.648,2.303,2.951l19.445,110.246c0.226,1.305-0.195,2.641-1.148,3.57
		C280.848,378.038,279.841,378.437,278.818,378.437z M240.133,362.273l33.727,7.043l-17.398-98.609l-29.28,18.146L240.133,362.273z"
		/>
	<path style="fill:#116FFF;" d="M354.776,348.81c-1.906,0-3.593-1.365-3.928-3.303l-13.885-78.752
		c-0.383-2.18,1.07-4.248,3.24-4.631c2.156-0.43,4.248,1.068,4.631,3.24l13.885,78.752c0.383,2.18-1.07,4.248-3.241,4.631
		C355.244,348.794,355.01,348.81,354.776,348.81z"/>
	<path style="fill:#116FFF;" d="M241.3,303.863c-1.905,0-3.592-1.367-3.932-3.303c-0.387-2.18,1.065-4.248,3.24-4.631l7.879-1.391
		c2.179-0.445,4.248,1.07,4.63,3.24c0.387,2.18-1.065,4.248-3.24,4.631l-7.879,1.391C241.765,303.847,241.53,303.863,241.3,303.863z
		"/>
	<path style="fill:#116FFF;" d="M249.632,351.107c-1.905,0-3.592-1.367-3.932-3.303c-0.387-2.172,1.065-4.248,3.24-4.631
		l7.872-1.391c2.178-0.453,4.249,1.07,4.631,3.24c0.386,2.172-1.066,4.248-3.241,4.631l-7.871,1.391
		C250.097,351.091,249.862,351.107,249.632,351.107z"/>
	<path style="fill:#116FFF;" d="M245.462,327.476c-1.905,0-3.592-1.365-3.936-3.311c-0.379-2.17,1.073-4.24,3.248-4.623l7.879-1.383
		c2.175-0.428,4.245,1.07,4.63,3.25c0.379,2.17-1.073,4.24-3.248,4.623l-7.879,1.381
		C245.923,327.46,245.693,327.476,245.462,327.476z"/>
	<path style="fill:#116FFF;" d="M266.55,262.864c-1.905,0-3.596-1.365-3.936-3.303c-0.387-2.17,1.065-4.248,3.24-4.63l15.751-2.78
		c2.147-0.445,4.248,1.07,4.631,3.241c0.383,2.171-1.07,4.248-3.241,4.63l-15.75,2.779
		C267.011,262.849,266.777,262.864,266.55,262.864z"/>
	<path style="fill:#116FFF;" d="M378.265,481.288c-1.64,0-3.187-1.016-3.765-2.654l-29.51-82.58
		c-0.742-2.076,0.336-4.365,2.413-5.107c2.093-0.732,4.373,0.336,5.115,2.422l29.51,82.58c0.749,2.076-0.344,4.363-2.421,5.105
		C379.17,481.21,378.709,481.288,378.265,481.288z"/>
	<path style="fill:#116FFF;" d="M338.892,488.232c-1.64,0-3.187-1.016-3.764-2.656l-29.51-82.578
		c-0.742-2.078,0.335-4.365,2.413-5.107c2.1-0.719,4.373,0.336,5.114,2.42l29.51,82.58c0.75,2.076-0.343,4.365-2.421,5.107
		C339.798,488.154,339.337,488.232,338.892,488.232z"/>
	<path style="fill:#116FFF;" d="M331.021,489.62c-1.905,0-3.593-1.365-3.936-3.303c-0.391-2.178,1.062-4.248,3.24-4.631
		l55.123-9.723c2.155-0.428,4.248,1.07,4.631,3.242c0.383,2.178-1.069,4.248-3.24,4.631l-55.124,9.721
		C331.481,489.605,331.247,489.62,331.021,489.62z"/>
	<path style="fill:#116FFF;" d="M290.852,400.677c-1.906,0-3.593-1.367-3.936-3.303l-1.562-8.863
		c-0.391-2.178,1.062-4.248,3.241-4.631c2.179-0.453,4.248,1.07,4.63,3.24l1.562,8.863c0.391,2.18-1.062,4.248-3.241,4.631
		C291.313,400.661,291.078,400.677,290.852,400.677z"/>
	<path style="fill:#116FFF;" d="M290.852,400.677c-1.914,0-3.608-1.375-3.936-3.318c-0.375-2.172,1.077-4.24,3.256-4.623
		l70.921-12.252c2.163-0.383,4.24,1.086,4.614,3.264c0.375,2.172-1.077,4.24-3.256,4.623l-70.921,12.252
		C291.305,400.661,291.071,400.677,290.852,400.677z"/>
	<path style="fill:#116FFF;" d="M361.772,388.424c-1.905,0-3.592-1.367-3.936-3.303l-1.39-7.879
		c-0.391-2.18,1.062-4.248,3.241-4.631c2.146-0.438,4.248,1.068,4.63,3.24l1.39,7.879c0.391,2.18-1.062,4.248-3.24,4.631
		C362.233,388.409,361.998,388.424,361.772,388.424z"/>
	<path style="fill:#116FFF;" d="M20.229,38.14c-2.206,0-4.037-1.788-4.037-3.998s1.749-3.999,3.959-3.999h0.078
		c2.21,0,3.998,1.789,3.998,3.999S22.439,38.14,20.229,38.14z"/>
	<path style="fill:#116FFF;" d="M36.222,38.14c-2.206,0-4.037-1.788-4.037-3.998s1.749-3.999,3.959-3.999h0.078
		c2.21,0,3.998,1.789,3.998,3.999S38.432,38.14,36.222,38.14z"/>
	<path style="fill:#116FFF;" d="M52.215,38.14c-2.206,0-4.037-1.788-4.037-3.998s1.749-3.999,3.959-3.999h0.078
		c2.21,0,3.998,1.789,3.998,3.999S54.425,38.14,52.215,38.14z"/>
	<path style="fill:#116FFF;" d="M507.768,46.136H3.998C1.788,46.136,0,44.348,0,42.138v-7.996c0-6.614,5.38-11.995,11.994-11.995
		h487.777c6.613,0,11.994,5.381,11.994,11.995v7.996C511.766,44.348,509.978,46.136,507.768,46.136z M7.996,38.14h495.773v-3.998
		c0-2.202-1.796-3.999-3.998-3.999H11.994c-2.206,0-3.998,1.796-3.998,3.999V38.14z"/>
	<path style="fill:#116FFF;" d="M507.768,302.011c-2.21,0-3.998-1.787-3.998-3.998V42.138c0-2.21,1.788-3.998,3.998-3.998
		s3.998,1.788,3.998,3.998v255.875C511.766,300.224,509.978,302.011,507.768,302.011z"/>
	<path style="fill:#116FFF;" d="M3.998,365.982c-2.21,0-3.998-1.787-3.998-3.998V42.138c0-2.21,1.788-3.998,3.998-3.998
		s3.998,1.788,3.998,3.998v319.846C7.996,364.195,6.208,365.982,3.998,365.982z"/>
	<path style="fill:#116FFF;" d="M219.9,365.982H3.998c-2.21,0-3.998-1.787-3.998-3.998c0-2.209,1.788-3.998,3.998-3.998h215.901
		c2.21,0,3.998,1.789,3.998,3.998C223.898,364.195,222.11,365.982,219.9,365.982z"/>
	<path style="fill:#116FFF;" d="M95.202,262.03c-0.698,0-1.405-0.18-2.05-0.57c-1.894-1.133-2.51-3.592-1.374-5.482l28.737-47.979
		c0.722-1.202,2.21-2.226,3.428-1.944c1.397,0,2.694,0.727,3.416,1.921l29.112,47.979c1.147,1.89,0.546,4.349-1.344,5.498
		c-1.886,1.141-4.346,0.539-5.489-1.344L123.966,217.8l-25.332,42.285C97.889,261.335,96.562,262.03,95.202,262.03z"/>
	<path style="fill:#116FFF;" d="M70.714,262.03c-0.762,0-1.527-0.219-2.206-0.664c-1.843-1.227-2.343-3.709-1.121-5.544
		l21.24-31.985c0.742-1.117,1.991-1.788,3.331-1.788l0,0c1.339,0,2.589,0.671,3.33,1.788l11.78,17.742
		c1.222,1.835,0.722,4.318-1.121,5.544c-1.847,1.202-4.322,0.718-5.54-1.125l-8.449-12.721l-17.91,26.964
		C73.279,261.405,72.01,262.03,70.714,262.03z"/>
	<path style="fill:#116FFF;" d="M475.782,150.081H35.984c-2.21,0-3.998-1.788-3.998-3.998V74.123c0-2.21,1.788-3.998,3.998-3.998
		h439.799c2.21,0,3.998,1.788,3.998,3.998v71.959C479.78,148.292,477.992,150.081,475.782,150.081z M39.982,142.085h431.803V78.121
		H39.982V142.085z"/>
	<path style="fill:#116FFF;" d="M163.925,262.03H35.984c-2.21,0-3.998-1.789-3.998-3.998v-79.964c0-2.21,1.788-3.998,3.998-3.998
		h127.941c2.21,0,3.998,1.788,3.998,3.998v79.964C167.923,260.241,166.135,262.03,163.925,262.03z M39.982,254.033h119.945v-71.967
		H39.982V254.033z"/>
	<path style="fill:#116FFF;" d="M59.531,214.051c-6.614,0-11.994-5.38-11.994-11.995s5.38-11.994,11.994-11.994
		s11.995,5.38,11.995,11.994S66.146,214.051,59.531,214.051z M59.531,198.059c-2.206,0-3.998,1.796-3.998,3.998
		s1.792,3.998,3.998,3.998s3.998-1.796,3.998-3.998S61.737,198.059,59.531,198.059z"/>
	<path style="fill:#116FFF;" d="M431.803,110.098H79.964c-2.21,0-3.999-1.788-3.999-3.998s1.789-3.998,3.999-3.998h351.839
		c2.209,0,3.998,1.788,3.998,3.998S434.012,110.098,431.803,110.098z"/>
	<path style="fill:#116FFF;" d="M383.824,126.091H127.942c-2.21,0-3.998-1.788-3.998-3.998s1.788-3.999,3.998-3.999h255.883
		c2.21,0,3.998,1.789,3.998,3.999S386.034,126.091,383.824,126.091z"/>
	<path style="fill:#116FFF;" d="M163.925,286.019H35.984c-2.21,0-3.998-1.789-3.998-3.998c0-2.211,1.788-3.998,3.998-3.998h127.941
		c2.21,0,3.998,1.787,3.998,3.998C167.923,284.23,166.135,286.019,163.925,286.019z"/>
	<path style="fill:#116FFF;" d="M163.925,310.007H35.984c-2.21,0-3.998-1.787-3.998-3.998c0-2.209,1.788-3.998,3.998-3.998h127.941
		c2.21,0,3.998,1.789,3.998,3.998C167.923,308.22,166.135,310.007,163.925,310.007z"/>
	<path style="fill:#116FFF;" d="M99.954,333.997h-63.97c-2.21,0-3.998-1.789-3.998-3.998c0-2.211,1.788-3.998,3.998-3.998h63.971
		c2.21,0,3.998,1.787,3.998,3.998C103.952,332.208,102.164,333.997,99.954,333.997z"/>
	<path style="fill:#116FFF;" d="M255.13,262.03c-0.699,0-1.406-0.18-2.05-0.57c-1.894-1.133-2.51-3.592-1.374-5.482l28.736-47.979
		c0.719-1.202,2.016-1.937,3.413-1.944c0.008,0,0.016,0,0.016,0c1.397,0,2.694,0.727,3.42,1.921l27.3,45.003
		c1.156,1.89,0.547,4.35-1.343,5.497c-1.882,1.141-4.342,0.547-5.481-1.342L283.895,217.8l-25.332,42.285
		C257.816,261.335,256.488,262.03,255.13,262.03z"/>
	<path style="fill:#116FFF;" d="M230.641,262.03c-0.762,0-1.527-0.219-2.206-0.664c-1.843-1.227-2.343-3.709-1.121-5.544
		l21.24-31.985c0.742-1.117,1.991-1.788,3.331-1.788l0,0c1.339,0,2.589,0.671,3.33,1.788l11.78,17.742
		c1.226,1.835,0.726,4.318-1.117,5.544c-1.851,1.202-4.329,0.718-5.544-1.125l-8.449-12.721l-17.91,26.964
		C233.206,261.405,231.937,262.03,230.641,262.03z"/>
	<path style="fill:#116FFF;" d="M271.282,262.03H195.91c-2.21,0-3.998-1.789-3.998-3.998v-79.964c0-2.21,1.788-3.998,3.998-3.998
		h127.941c2.21,0,3.998,1.788,3.998,3.998v66.759c0,2.21-1.788,3.998-3.998,3.998s-3.998-1.788-3.998-3.998v-62.76H199.908v71.967
		h71.374c2.21,0,3.998,1.788,3.998,3.999C275.28,260.241,273.492,262.03,271.282,262.03z"/>
	<path style="fill:#116FFF;" d="M219.458,214.051c-6.614,0-11.994-5.38-11.994-11.995s5.38-11.994,11.994-11.994
		s11.995,5.38,11.995,11.994S226.072,214.051,219.458,214.051z M219.458,198.059c-2.206,0-3.998,1.796-3.998,3.998
		s1.792,3.998,3.998,3.998s3.998-1.796,3.998-3.998S221.664,198.059,219.458,198.059z"/>
	<path style="fill:#116FFF;" d="M203.907,286.019h-7.997c-2.21,0-3.998-1.789-3.998-3.998c0-2.211,1.788-3.998,3.998-3.998h7.997
		c2.209,0,3.998,1.787,3.998,3.998C207.905,284.23,206.116,286.019,203.907,286.019z"/>
	<path style="fill:#116FFF;" d="M203.907,310.007h-7.997c-2.21,0-3.998-1.787-3.998-3.998c0-2.209,1.788-3.998,3.998-3.998h7.997
		c2.209,0,3.998,1.789,3.998,3.998C207.905,308.22,206.116,310.007,203.907,310.007z"/>
	<path style="fill:#116FFF;" d="M211.904,333.997h-15.993c-2.21,0-3.998-1.789-3.998-3.998c0-2.211,1.788-3.998,3.998-3.998h15.993
		c2.209,0,3.998,1.787,3.998,3.998C215.902,332.208,214.113,333.997,211.904,333.997z"/>
	<path style="fill:#116FFF;" d="M355.837,242.538c-2.21,0-3.998-1.788-3.998-3.998v-60.473c0-2.21,1.788-3.998,3.998-3.998h91.708
		c2.21,0,3.998,1.788,3.998,3.998s-1.788,3.999-3.998,3.999h-87.71v56.474C359.835,240.751,358.047,242.538,355.837,242.538z"/>
	<path style="fill:#116FFF;" d="M379.389,214.051c-6.614,0-11.994-5.38-11.994-11.995s5.38-11.994,11.994-11.994
		s11.994,5.38,11.994,11.994S386.003,214.051,379.389,214.051z M379.389,198.059c-2.202,0-3.998,1.796-3.998,3.998
		s1.796,3.998,3.998,3.998s3.998-1.796,3.998-3.998S381.591,198.059,379.389,198.059z"/>
</g>
<g>
</g>
<g>
</g>
<g>
</g>
<g>
</g>
<g>
</g>
<g>
</g>
<g>
</g>
<g>
</g>
<g>
</g>
<g>
</g>
<g>
</g>
<g>
</g>
<g>
</g>
<g>
</g>
<g>
</g>
</svg>
