<svg id="line" height="512" viewBox="0 0 64 64" width="512" xmlns="http://www.w3.org/2000/svg"><path d="m51 61h-4v-4h-18v4h-4a1 1 0 0 0 0 2h26a1 1 0 0 0 0-2z" fill="#c4a2fc"/><path d="m20 25h36v23h-36z" fill="#c4a2fc"/><path d="m60 18h-44a3 3 0 0 0 -3 3v31a3 3 0 0 0 3 3h44a3 3 0 0 0 3-3v-31a3 3 0 0 0 -3-3zm-2 31a1 1 0 0 1 -1 1h-38a1 1 0 0 1 -1-1v-25a1 1 0 0 1 1-1h38a1 1 0 0 1 1 1z" fill="#c4a2fc"/><g fill="#151a6a"><path d="m48 1h-44a3 3 0 0 0 -3 3v36a3 3 0 0 0 3 3h44a3 3 0 0 0 3-3v-36a3 3 0 0 0 -3-3zm-44 2h44a1 1 0 0 1 1 1v4.988h-46v-4.988a1 1 0 0 1 1-1zm44 38h-44a1 1 0 0 1 -1-1v-29.012h46v29.012a1 1 0 0 1 -1 1z"/><circle cx="7.5" cy="6" r="1.5"/><circle cx="13.5" cy="6" r="1.5"/><path d="m10.4 17.2-4 3a1 1 0 0 0 0 1.6l4 3a1 1 0 1 0 1.2-1.6l-2.933-2.2 2.933-2.2a1 1 0 0 0 -1.2-1.6z"/><path d="m17.2 24.6a1 1 0 0 0 1.4.2l4-3a1 1 0 0 0 0-1.6l-4-3a1 1 0 0 0 -1.2 1.6l2.933 2.2-2.933 2.2a1 1 0 0 0 -.2 1.4z"/><path d="m45 23h-18a1 1 0 0 0 0 2h18a1 1 0 0 0 0-2z"/><path d="m45 18h-7a1 1 0 0 0 0 2h7a1 1 0 0 0 0-2z"/><path d="m45 28h-15a1 1 0 0 0 0 2h15a1 1 0 0 0 0-2z"/><path d="m26 28h-12a1 1 0 0 0 0 2h12a1 1 0 0 0 0-2z"/><path d="m10 28h-3a1 1 0 0 0 0 2h3a1 1 0 0 0 0-2z"/><path d="m45 33h-15a1 1 0 0 0 0 2h15a1 1 0 0 0 0-2z"/><path d="m26 33h-12a1 1 0 0 0 0 2h12a1 1 0 0 0 0-2z"/><path d="m10 33h-3a1 1 0 0 0 0 2h3a1 1 0 0 0 0-2z"/></g></svg>