<svg id="Capa_1" enable-background="new 0 0 512.233 512.233" height="512" viewBox="0 0 512.233 512.233" width="512" xmlns="http://www.w3.org/2000/svg"><g><g><path d="m146.633 217.216-21.301 21.301-47.598-17.651-25.696-25.864-26.605-56.685c4.199-7.5 8.699-14.7 13.799-21.899 10.201-14.099 33.001-15.899 45.601-3.3l61.8 61.8c11.763 11.762 11.462 30.836 0 42.298z" fill="#5b362a"/><path d="m407.933 451.516c-.601 8.701-5.101 16.501-12.001 21.601-7.2 5.099-14.399 9.6-22.2 13.5l-51.656-21.656-22.032-22.032-25.912-55.912 21-21.301c11.4-11.4 31.199-11.4 42.299 0l61.8 61.8c6.302 6.301 9.602 15 8.702 24z" fill="#38211a"/></g><g><g fill="#8cd96b"><path d="m302.233 180.116c-8.291 0-15 6.724-15 15.015 0 8.273 6.714 14.991 14.987 14.998.004 0 .009.002.013.002.894 7.632 7.427 14.121 15.044 14.121.249 0 .513 0 .762-.015 7.939-.454 14.194-6.167 14.194-14.121 0-8.269-3.365-15.769-8.798-21.202s-12.933-8.798-21.202-8.798z"/><path d="m302.233 120.116c-8.291 0-15 6.709-15 15s6.709 15 15 15c16.545 0 31.545 6.727 42.409 17.591s17.591 25.864 17.591 42.409c0 8.291 6.709 15 15 15s15-6.709 15-15c0-24.814-10.093-47.314-26.389-63.611s-38.797-26.389-63.611-26.389z"/><path d="m302.233 60.116c-8.291 0-15 6.709-15 15s6.709 15 15 15c33.083 0 63.083 13.458 84.813 35.187s35.187 51.729 35.187 84.813c0 8.291 6.709 15 15 15s15-6.709 15-15c0-41.353-16.824-78.853-43.986-106.014s-64.662-43.986-106.014-43.986z"/><path d="m450.656 61.693c-38.025-38.026-90.525-61.577-148.423-61.577-8.291 0-15 6.709-15 15s6.709 15 15 15c49.629 0 94.629 20.186 127.222 52.778s52.778 77.593 52.778 127.222c0 8.291 6.709 15 15 15s15-6.709 15-15c0-57.898-23.551-110.398-61.577-148.423z"/></g><g fill="#5ab267"><path d="m497.233 225.116c8.291 0 15-6.709 15-15 0-57.898-23.551-110.398-61.577-148.423l-21.202 21.202c32.593 32.593 52.778 77.593 52.778 127.222.001 8.29 6.71 14.999 15.001 14.999z"/><path d="m317.277 224.252c.249 0 .513 0 .762-.015 7.939-.454 14.194-6.167 14.194-14.121 0-8.269-3.365-15.769-8.798-21.202l-21.215 21.215c.004 0 .009.002.013.002.893 7.632 7.426 14.121 15.044 14.121z"/><path d="m377.233 225.116c8.291 0 15-6.709 15-15 0-24.814-10.093-47.314-26.389-63.611l-21.202 21.202c10.864 10.864 17.591 25.864 17.591 42.409 0 8.291 6.709 15 15 15z"/><path d="m437.233 225.116c8.291 0 15-6.709 15-15 0-41.353-16.824-78.853-43.986-106.014l-21.202 21.202c21.729 21.729 35.187 51.729 35.187 84.813.001 8.29 6.71 14.999 15.001 14.999z"/></g></g><path d="m274.133 387.017s-17.701 12.599-27.9 14.7c-20.099 5.099-42.301 0-57.301-14.7l-31.8-31.8-31.8-31.8c-15.599-15.601-20.7-37.8-15.3-57.9 2.401-9.901 7.5-19.2 15.3-27.001l-99.899-100.2c-5.101 9.6-9.6 19.501-12.902 29.702-27.299 74.7-9.598 160.199 49.2 219l31.8 31.8 31.8 31.8c39.6 39.6 92.401 61.5 148.5 61.5 24.3 0 47.999-4.2 70.499-12.299 10.201-3.301 20.101-7.8 29.401-13.2z" fill="#ff641a"/><path d="m273.833 512.116c24.3 0 47.999-4.2 70.499-12.299 10.201-3.301 20.101-7.8 29.401-13.2l-99.6-99.6s-17.701 12.599-27.9 14.7c-20.099 5.099-42.301 0-57.301-14.7l-31.8-31.8-63.6 63.6 31.8 31.8c39.6 39.6 92.401 61.499 148.501 61.499z" fill="#f03800"/></g></svg>